:version 1.10
:name ASF
:units
  mass 1
  length 1
  angle deg
:documentation
  ASF file generated by Kaydara
:root
  axis xyz
  order  tx ty tz rx ry rz
  position 0 0 0
  orientation 0 0 0
:bonedata
  begin
    id 1
    name RightUpLegDummy
    direction -1 2.30186e-007 8.31532e-007
    length 4.46685
    axis 0 0 0 xyz
  end
  begin
    id 2
    name RightUpLeg
    direction -2.30187e-007 -1 1.24343e-010
    length 16.4045
    axis -3.49089 -0.000906625 0.000286804 xyz
    dof rx ry rz
  end
  begin
    id 3
    name RightLeg
    direction -2.30181e-007 -1 -4.17157e-009
    length 17.5097
    axis 3.68512 0.0193738 -0.131023 xyz
    dof rx ry rz
  end
  begin
    id 4
    name RightFoot
    direction 8.31421e-007 -4.51202e-011 1
    length 6.49508
    axis 4.81691e-005 -0.120479 -0.188788 xyz
    dof rx ry rz
  end
  begin
    id 5
    name RightToes
    direction 0.00124746 -0.014064 0.9999
    length 3.85082
    axis 0.000481921 0.542163 -0.142578 xyz
    dof rx ry rz
  end
  begin
    id 6
    name SpineDummy
    direction 0.0717043 0.9409 -0.331007
    length 10.0032
    axis 0 0 0 xyz
  end
  begin
    id 7
    name Spine
    direction 2.30186e-007 1 4.58806e-011
    length 9.84055
    axis -0.001389 0.000121418 2.40972e-006 xyz
    dof rx ry rz
  end
  begin
    id 8
    name Spine1
    direction 0 0 0
    length 0
    axis -0.001389 0.000121451 1.30017e-006 xyz
    dof rx ry rz
  end
  begin
    id 9
    name HEadDummy
    direction -0.00347485 0.950688 -0.310128
    length 8.00997
    axis -0.001389 0.000121451 1.30017e-006 xyz
  end
  begin
    id 10
    name HEad
    direction -0.0222688 0.980941 0.193023
    length 5.12695
    axis -0.001389 0.000121451 1.30017e-006 xyz
    dof rx ry rz
  end
  begin
    id 11
    name LeftShoulder1Dummy
    direction 0.988871 0.146793 -0.0242004
    length 3.5792
    axis -0.001389 0.000121451 1.30017e-006 xyz
  end
  begin
    id 12
    name LeftShoulder1
    direction 0.993832 0.108932 0.020779
    length 4.16823
    axis -0.001389 0.000121451 1.30017e-006 xyz
    dof rx ry rz
  end
  begin
    id 13
    name LeftArm
    direction 1 3.44807e-006 -8.31404e-007
    length 9.91437
    axis -23.1894 0.134784 0.967509 xyz
    dof rx ry rz
  end
  begin
    id 14
    name LeftForeArm
    direction 1 3.44842e-006 -8.31581e-007
    length 9.08575
    axis -9.91835 -0.06569 -0.177793 xyz
    dof rx ry rz
  end
  begin
    id 15
    name LeftHand
    direction 0.992938 -0.0411636 0.11126
    length 5.32135
    axis -0.00960232 -0.00340091 0.185173 xyz
    dof rx ry rz
  end
  begin
    id 16
    name RightShoulderDummy
    direction -0.988871 0.146793 -0.0241962
    length 3.5792
    axis -0.001389 0.000121451 1.30017e-006 xyz
  end
  begin
    id 17
    name RightShoulder
    direction -0.993832 0.108933 0.0207785
    length 4.16823
    axis 0.215806 0.000203643 -0.0068026 xyz
    dof rx ry rz
  end
  begin
    id 18
    name RightArm
    direction -1 3.90912e-006 8.31284e-007
    length 9.91437
    axis -23.2009 -0.134239 -0.964101 xyz
    dof rx ry rz
  end
  begin
    id 19
    name RightForeArm
    direction -1 3.90882e-006 8.31502e-007
    length 9.08575
    axis -9.92322 0.0658061 0.178867 xyz
    dof rx ry rz
  end
  begin
    id 20
    name RightHand
    direction -0.992843 -0.0414603 0.112003
    length 5.28593
    axis -0.00960638 0.00330671 -0.185228 xyz
    dof rx ry rz
  end
  begin
    id 21
    name LeftUpLegDummy
    direction 1 -2.30186e-007 -8.31532e-007
    length 4.46685
    axis 0 0 0 xyz
  end
  begin
    id 22
    name LeftUpLeg
    direction -2.30187e-007 -1 6.00931e-010
    length 16.4045
    axis -3.48766 0.00143442 -0.000524262 xyz
    dof rx ry rz
  end
  begin
    id 23
    name LeftLeg
    direction -2.30187e-007 -1 1.6669e-009
    length 17.5097
    axis 3.68178 -0.00654042 -0.000285133 xyz
    dof rx ry rz
  end
  begin
    id 24
    name LeftFoot
    direction 8.31532e-007 -4.54478e-011 1
    length 6.49508
    axis 1.87233e-006 4.66016e-005 -8.6538e-006 xyz
    dof rx ry rz
  end
  begin
    id 25
    name LeftToes
    direction 0.00818058 -0.00485161 0.999955
    length 3.85048
    axis 1.06247e-005 4.65869e-005 -8.65513e-006 xyz
    dof rx ry rz
  end
:hierarchy
  begin
    root RightUpLegDummy SpineDummy LeftUpLegDummy
    RightUpLegDummy RightUpLeg
    RightUpLeg RightLeg
    RightLeg RightFoot
    RightFoot RightToes
    SpineDummy Spine
    Spine Spine1
    Spine1 HEadDummy LeftShoulder1Dummy RightShoulderDummy
    HEadDummy HEad
    LeftShoulder1Dummy LeftShoulder1
    LeftShoulder1 LeftArm
    LeftArm LeftForeArm
    LeftForeArm LeftHand
    RightShoulderDummy RightShoulder
    RightShoulder RightArm
    RightArm RightForeArm
    RightForeArm RightHand
    LeftUpLegDummy LeftUpLeg
    LeftUpLeg LeftLeg
    LeftLeg LeftFoot
    LeftFoot LeftToes
  end

:SAMPLES-PER-SECOND 30
:FULLY-SPECIFIED
:DEGREES
36
root  46.0007 32.7943 4.75286 -166.265 -16.0426 177.243
RightUpLeg  -28.0395 8.70044 -13.0412
RightLeg  30.1733 -0.0748807 -0.046294
RightFoot  -3.87496 -0.00717166 0.165577
RightToes  -40.039 -0.218795 -0.315342
Spine  10.625 0.351033 2.83735
Spine1  20.7912 0.828688 3.97449
HEad  22.3309 23.2798 -10.0298
LeftShoulder1  0 -2.42657e-020 -4.95415e-022
LeftArm  -18.1671 -0.411907 -87.9749
LeftForeArm  43.6972 -33.4283 -6.66388
LeftHand  0.672882 -9.51068 -8.4515
RightShoulder  0 2.42657e-020 1.07489e-018
RightArm  4.13461 2.62801 68.6361
RightForeArm  83.8639 61.3028 18.7163
RightHand  -8.33755 20.6566 -43.24
LeftUpLeg  -30.9071 -1.17235 3.13605
LeftLeg  29.1026 -12.0691 -5.67875
LeftFoot  1.12516 0.00235559 -0.239906
LeftToes  -24.943 1.28829e-006 1.15665e-007
37
root  46.1622 32.4164 4.9693 -166.112 -18.1937 177.162
RightUpLeg  -30.1615 8.49985 -12.9435
RightLeg  34.6607 -1.6398 -0.998292
RightFoot  -5.94446 0.00505018 0.47487
RightToes  -39.3582 -0.213376 -0.311146
Spine  11.6156 1.48821 3.58592
Spine1  22.7989 3.79072 3.80303
HEad  21.2295 21.0415 -9.86581
LeftShoulder1  0 -2.42657e-020 -4.95415e-022
LeftArm  -14.9804 -3.53363 -89.0023
LeftForeArm  43.4117 -34.5327 -6.95034
LeftHand  0.661333 -9.64327 -8.20379
RightShoulder  0 2.42657e-020 1.07489e-018
RightArm  -0.719646 12.1431 70.3299
RightForeArm  74.9742 39.6409 8.30959
RightHand  -7.33286 21.6306 -36.7255
LeftUpLeg  -34.1098 -2.71925 3.56732
LeftLeg  33.4069 -12.0478 -6.80044
LeftFoot  -0.0162968 1.1711e-005 0.0823167
LeftToes  -25.5896 1.28829e-006 1.15665e-007
38
root  46.3564 31.9001 5.1781 -165.516 -19.9998 176.848
RightUpLeg  -33.3089 7.94843 -13.0521
RightLeg  40.195 -2.66102 -1.99088
RightFoot  -8.41406 0.039563 0.915463
RightToes  -38.6393 -0.207705 -0.307307
Spine  12.712 3.11974 4.65027
Spine1  25.107 8.09043 3.44407
HEad  20.4672 18.3817 -9.65074
LeftShoulder1  0 -2.42657e-020 -4.95415e-022
LeftArm  -12.3564 -6.3564 -90.6162
LeftForeArm  42.8456 -36.3504 -7.43959
LeftHand  0.655801 -9.46247 -8.28723
RightShoulder  0 2.42657e-020 1.07489e-018
RightArm  -10.3216 18.9829 69.5168
RightForeArm  68.8516 27.7191 5.24148
RightHand  -3.92975 20.8381 -20.773
LeftUpLeg  -38.0297 -3.72945 3.79387
LeftLeg  38.4435 -12.0355 -8.23943
LeftFoot  -1.47584 0.00664629 0.516009
LeftToes  -26.5958 1.28829e-006 1.15665e-007
39
root  46.554 31.4602 5.30994 -165.186 -21.6481 176.642
RightUpLeg  -35.4262 6.72233 -12.8325
RightLeg  44.3164 -2.89354 -2.51098
RightFoot  -10.4448 0.074676 1.19463
RightToes  -37.9916 -0.202641 -0.304517
Spine  13.7038 4.31012 5.79393
Spine1  27.2119 11.1712 4.10418
HEad  19.8322 15.356 -9.10576
LeftShoulder1  0 -2.42657e-020 -4.95415e-022
LeftArm  -9.82871 -8.51614 -91.8743
LeftForeArm  42.4073 -37.5254 -7.76866
LeftHand  0.656614 -9.46215 -8.29728
RightShoulder  0 2.42657e-020 1.07489e-018
RightArm  -33.7728 24.9377 67.1557
RightForeArm  52.4342 15.9731 2.85997
RightHand  -0.842565 18.7025 -4.74484
LeftUpLeg  -40.9752 -5.23372 4.28307
LeftLeg  42.1348 -11.3674 -8.90109
LeftFoot  -2.6971 0.0185408 0.787575
LeftToes  -26.3782 1.28829e-006 1.15665e-007
40
root  46.7222 31.2211 5.40183 -165.008 -23.5684 176.616
RightUpLeg  -36.2039 4.99787 -12.3359
RightLeg  46.3332 -2.803 -2.6146
RightFoot  -11.6023 0.0874647 1.23851
RightToes  -37.834 -0.201416 -0.302563
Spine  14.021 4.54842 6.78326
Spine1  27.9195 11.5545 5.95572
HEad  19.5143 12.655 -8.6336
LeftShoulder1  0 -2.42657e-020 -4.95415e-022
LeftArm  -8.24399 -9.09492 -92.515
LeftForeArm  42.0949 -38.2411 -7.97446
LeftHand  0.647504 -9.6713 -8.01819
RightShoulder  0 2.42657e-020 1.07489e-018
RightArm  -63.4543 26.9419 62.2418
RightForeArm  51.2005 8.99371 1.57323
RightHand  -0.1203 19.2548 -0.339289
LeftUpLeg  -42.9394 -7.18166 5.00582
LeftLeg  44.1404 -10.8975 -9.16492
LeftFoot  -2.9618 0.0190881 0.738329
LeftToes  -26.9864 1.28829e-006 1.15665e-007
41
root  46.8425 31.194 5.44335 -164.76 -25.9318 176.51
RightUpLeg  -35.8234 3.11463 -11.8201
RightLeg  46.5442 -3.147 -2.95213
RightFoot  -12.0613 0.0995142 1.31957
RightToes  -37.324 -0.197467 -0.30095
Spine  14.0295 4.24569 7.46845
Spine1  28.1158 10.7461 7.34098
HEad  18.8366 11.08 -8.74576
LeftShoulder1  0 -2.42657e-020 -4.95415e-022
LeftArm  -8.23874 -8.74996 -92.6357
LeftForeArm  42.182 -39.8709 -8.45809
LeftHand  0.605154 -9.55858 -7.60385
RightShoulder  0 2.42657e-020 1.07489e-018
RightArm  -64.8855 24.5459 59.9667
RightForeArm  41.5007 13.1163 2.34025
RightHand  -0.365169 21.4063 -1.56229
LeftUpLeg  -43.973 -7.32825 5.04039
LeftLeg  44.7152 -12.5628 -10.7253
LeftFoot  -2.20455 0.011408 0.592892
LeftToes  -27.0989 1.28829e-006 1.15665e-007
42
root  46.9027 31.3387 5.4165 -164.464 -28.4054 176.399
RightUpLeg  -34.6235 1.60818 -11.3101
RightLeg  45.3964 -4.02218 -3.61017
RightFoot  -11.774 0.112565 1.46929
RightToes  -37.073 -0.194505 -0.299417
Spine  13.7908 3.64216 7.81812
Spine1  27.8495 9.48162 7.87532
HEad  18.3432 10.7746 -8.62287
LeftShoulder1  0 -2.42657e-020 -4.95415e-022
LeftArm  -9.19798 -7.46237 -92.1939
LeftForeArm  41.8946 -41.8449 -9.07742
LeftHand  0.519777 -9.40946 -6.68429
RightShoulder  0 2.42657e-020 1.07489e-018
RightArm  -54.7614 20.6165 58.5544
RightForeArm  34.1717 20.7386 3.81843
RightHand  -0.751478 23.5881 -3.22869
LeftUpLeg  -44.1796 -5.4233 4.38877
LeftLeg  44.4306 -16.3768 -13.6605
LeftFoot  -0.586469 0.000866539 0.169303
LeftToes  -28.2092 1.28829e-006 1.15665e-007
43
root  46.8628 31.6321 5.36817 -164.173 -30.6711 176.243
RightUpLeg  -32.6312 0.365771 -11.0161
RightLeg  42.849 -4.96893 -4.06229
RightFoot  -10.8135 0.108251 1.52135
RightToes  -36.7274 -0.192278 -0.298355
Spine  13.3036 2.76138 7.72939
Spine1  26.9835 7.53766 7.94085
HEad  18.3992 11.2591 -8.77381
LeftShoulder1  0 -2.42657e-020 -4.95415e-022
LeftArm  -10.537 -5.77525 -91.3101
LeftForeArm  41.1416 -43.0184 -9.46545
LeftHand  0.470092 -9.28406 -6.1592
RightShoulder  0 2.42657e-020 1.07489e-018
RightArm  -47.6589 16.7663 58.3282
RightForeArm  29.5081 28.7401 5.54354
RightHand  -1.20474 25.1304 -5.03253
LeftUpLeg  -43.6657 -2.60931 3.30266
LeftLeg  43.4105 -21.1565 -16.7017
LeftFoot  1.84367 0.0152092 -0.945225
LeftToes  -34.915 1.28829e-006 1.15665e-007
44
root  46.7256 31.9802 5.30019 -164.205 -32.2293 176.234
RightUpLeg  -30.0644 -0.64427 -10.7995
RightLeg  39.3657 -5.59641 -4.02559
RightFoot  -9.41117 0.084441 1.40348
RightToes  -36.6436 -0.192241 -0.298152
Spine  12.7951 1.8121 7.24167
Spine1  25.9087 5.32352 7.68703
HEad  18.9728 12.4319 -8.78763
LeftShoulder1  0 -2.42657e-020 -4.95415e-022
LeftArm  -11.746 -3.92112 -89.9649
LeftForeArm  40.8146 -43.6798 -9.69086
LeftHand  0.472387 -9.28687 -6.18565
RightShoulder  0 2.42657e-020 1.07489e-018
RightArm  -41.9157 13.4834 59.2065
RightForeArm  31.8716 36.0863 7.38255
RightHand  -1.38338 21.6307 -6.86409
LeftUpLeg  -42.6074 0.770483 2.22593
LeftLeg  42.2986 -26.237 -19.4542
LeftFoot  4.26215 0.0985759 -2.64861
LeftToes  -48.6796 1.28829e-006 1.15665e-007
45
root  46.5037 32.3162 5.21212 -164.602 -32.7869 176.486
RightUpLeg  -27.2781 -1.20955 -10.6347
RightLeg  35.3592 -5.82092 -3.59447
RightFoot  -7.6313 0.0512134 1.14553
RightToes  -37.2722 -0.197067 -0.2992
Spine  12.3705 0.972768 6.46021
Spine1  24.8541 3.13763 7.44458
HEad  19.1941 13.9873 -8.98289
LeftShoulder1  0 -2.42657e-020 -4.95415e-022
LeftArm  -12.1825 -2.03894 -88.2828
LeftForeArm  39.9219 -44.1498 -9.85502
LeftHand  0.499 -9.15 -6.60485
RightShoulder  0 2.42657e-020 1.07489e-018
RightArm  -37.8037 10.4965 61.3697
RightForeArm  33.0761 43.7217 9.71838
RightHand  -1.87699 20.8737 -9.79714
LeftUpLeg  -41.1718 3.58859 1.97756
LeftLeg  40.7768 -29.153 -20.2261
LeftFoot  5.11214 0.157247 -3.52134
LeftToes  -58.7673 1.28829e-006 1.15665e-007
46
root  46.2044 32.5781 5.17974 -164.599 -32.2385 176.522
RightUpLeg  -25.4473 -1.47254 -10.9926
RightLeg  31.9585 -5.37064 -2.89183
RightFoot  -5.99081 0.0237834 0.832155
RightToes  -37.9883 -0.202616 -0.303479
Spine  11.9404 0.190204 5.50726
Spine1  23.7198 0.986591 7.06706
HEad  18.7255 16.0483 -9.6153
LeftShoulder1  0 -2.42657e-020 -4.95415e-022
LeftArm  -12.9863 0.166073 -86.845
LeftForeArm  39.4125 -44.716 -10.0557
LeftHand  0.516358 -9.04367 -6.89733
RightShoulder  0 2.42657e-020 1.07489e-018
RightArm  -35.061 7.26531 64.3932
RightForeArm  40.0372 54.5545 14.3821
RightHand  -3.00104 18.7268 -17.6891
LeftUpLeg  -39.5254 3.15683 3.61154
LeftLeg  36.6474 -23.3902 -14.4426
LeftFoot  4.9941 0.111903 -2.56562
LeftToes  -50.9021 1.28829e-006 1.15665e-007
47
root  45.8585 32.6123 5.13227 -164.663 -30.7299 176.827
RightUpLeg  -25.1057 -1.18589 -11.3702
RightLeg  30.7851 -4.48813 -2.30206
RightFoot  -5.33452 0.0130767 0.658333
RightToes  -39.0988 -0.211324 -0.309975
Spine  11.8743 -0.0534581 4.99292
Spine1  23.4643 0.426563 6.16646
HEad  18.1654 19.054 -10.98
LeftShoulder1  0 -2.42657e-020 -4.95415e-022
LeftArm  -14.2867 2.43806 -86.0361
LeftForeArm  39.1925 -46.2869 -10.6329
LeftHand  0.529124 -9.09359 -7.02153
RightShoulder  0 2.42657e-020 1.07489e-018
RightArm  -34.0025 4.9122 66.6114
RightForeArm  56.2902 66.3732 23.888
RightHand  -3.49611 19.2308 -20.0603
LeftUpLeg  -38.1301 2.81468 6.23867
LeftLeg  34.0576 -15.5708 -8.94544
LeftFoot  2.8849 0.0246716 -0.979765
LeftToes  -44.0787 1.28829e-006 1.15665e-007
48
root  45.4307 32.5077 5.11126 -164.895 -29.0798 177.32
RightUpLeg  -25.5087 -0.832424 -11.7707
RightLeg  31.1025 -3.46206 -1.80377
RightFoot  -5.1908 0.00891679 0.574337
RightToes  -40.5529 -0.222915 -0.318224
Spine  12.0445 -0.178534 4.57416
Spine1  23.7751 0.435425 4.82599
HEad  17.1599 22.5281 -12.667
LeftShoulder1  0 -2.42657e-020 -4.95415e-022
LeftArm  -16.0872 4.28834 -85.5495
LeftForeArm  39.2561 -48.1919 -11.3805
LeftHand  0.534207 -9.16415 -7.03345
RightShoulder  0 2.42657e-020 1.07489e-018
RightArm  -29.4707 4.83751 67.0906
RightForeArm  78.1034 74.2271 38.8961
RightHand  -4.17002 19.9654 -23.0091
LeftUpLeg  -36.7969 2.62222 9.17238
LeftLeg  32.7559 -10.6859 -5.89025
LeftFoot  2.40321 0.0120739 -0.575638
LeftToes  -36.8353 1.28829e-006 1.15665e-007
49
root  44.932 32.289 5.18958 -165.111 -27.5734 177.845
RightUpLeg  -26.5534 -0.387803 -12.34
RightLeg  32.5493 -2.64573 -1.4689
RightFoot  -5.47459 0.00850932 0.555597
RightToes  -41.8977 -0.233817 -0.325589
Spine  12.1816 -0.255952 4.12658
Spine1  23.9698 0.523904 3.52316
HEad  16.3895 25.5187 -13.5317
LeftShoulder1  0 -2.42657e-020 -4.95415e-022
LeftArm  -17.2822 5.14645 -85.1713
LeftForeArm  39.3775 -48.9457 -11.6924
LeftHand  0.516371 -9.01612 -6.91749
RightShoulder  0 2.42657e-020 1.07489e-018
RightArm  -22.8539 6.37362 66.7191
RightForeArm  95.2364 77.4327 52.7612
RightHand  -4.85355 20.0447 -26.6084
LeftUpLeg  -35.8167 1.55016 12.2695
LeftLeg  32.1156 -6.93997 -3.7472
LeftFoot  3.75916 0.0185036 -0.563855
LeftToes  -28.5276 1.28829e-006 1.15665e-007
